<svg xmlns="http://www.w3.org/2000/svg" width="650" height="400"><defs><marker id="c" orient="auto" overflow="visible" refX="0" refY="0"><path fill-rule="evenodd" stroke="#000" stroke-width=".2pt" d="M.98 0a1 1 0 11-2 0 1 1 0 012 0z"/></marker><marker id="d" orient="auto" overflow="visible" refX="0" refY="0"><path fill-rule="evenodd" stroke="#000" stroke-width=".2pt" d="M-1.2 0l-1 1 3.5-1-3.5-1 1 1z"/></marker><marker id="a" orient="auto" overflow="visible" refX="0" refY="0"><path fill-rule="evenodd" stroke="#000" stroke-width=".2pt" d="M.98 0a1 1 0 11-2 0 1 1 0 012 0z"/></marker><marker id="b" orient="auto" overflow="visible" refX="0" refY="0"><path fill-rule="evenodd" stroke="#000" stroke-width=".2pt" d="M-1.2 0l-1 1 3.5-1-3.5-1 1 1z"/></marker></defs><g class="flip"><rect width="171.317" height="150.685" x=".11" y="248.55" fill="#c8c0c0" stroke="#000" stroke-dasharray="4.365 4.365" stroke-width="2.182" rx="4.035" ry="4.814"/><text style="line-height:125%" x="9.875" y="268.844" font-family="Sans" font-size="14.12" font-weight="400" letter-spacing="0" word-spacing="0"><tspan x="9.875" y="268.844">Debugger</tspan></text></g><g class="flip"><rect width="119.421" height="42.398" x="25.236" y="160.02" fill="#969696" rx="11.065" ry="11.065"/><rect width="177.655" height="46.615" x="209.361" y="336.42" fill="#969696" rx="4.039" ry="4.039"/><rect width="149.122" height="46.615" x="237.894" y="287.164" fill="#969696" rx="4.039" ry="4.039"/><rect width="119.421" height="42.398" x="192.177" y="161.099" fill="#969696" rx="11.065" ry="11.065"/><rect width="136.405" height="46.615" x="26.006" y="336.42" fill="#969696" rx="11.065" ry="11.065"/><rect width="242.772" height="75.739" x="183.318" y="47.055" fill="#969696" rx="6.125" ry="6.125"/><rect width="186.276" height="18.675" x="285.598" y="66.984" fill="#969696" stroke="#fff" stroke-width="2.929" rx="6.125" ry="6.125"/><rect width="194.03" height="46.615" x="413.202" y="336.42" fill="#969696" rx="4.039" ry="4.039"/><rect width="90.035" height="46.615" x="296.98" y="237.91" fill="#969696" rx="4.039" ry="4.039"/><text style="line-height:125%" x="33.258" y="378.201" font-family="Sans" font-size="12.935" font-weight="400" letter-spacing="0" word-spacing="0"><tspan x="33.258" y="378.201">Debugger.Object</tspan></text><text style="line-height:125%" x="218.723" y="377.522" font-family="Sans" font-size="12.935" font-weight="400" letter-spacing="0" word-spacing="0"><tspan x="218.723" y="377.522">Debugger.Environment</tspan></text><text style="line-height:125%" x="421.849" y="377.522" font-family="Sans" font-size="12.935" font-weight="400" letter-spacing="0" word-spacing="0"><tspan x="421.849" y="377.522">Debugger.Frame</tspan></text><text style="line-height:125%" x="29.181" y="196.813" font-family="Sans" font-size="12.935" font-weight="400" letter-spacing="0" word-spacing="0"><tspan x="29.181" y="196.813">Debugger.Object</tspan></text><text style="line-height:125%" x="199.222" y="197.892" font-family="Sans" font-size="12.935" font-weight="400" letter-spacing="0" word-spacing="0"><tspan x="199.222" y="197.892">Debugger.Object</tspan></text><text style="line-height:125%" x="190.189" y="118.008" font-family="Sans" font-size="12.935" font-weight="400" letter-spacing="0" word-spacing="0"><tspan x="190.189" y="118.008">Debugger.Script</tspan></text><rect width="194.03" height="46.615" x="413.202" y="287.164" fill="#969696" rx="4.039" ry="4.039"/></g><g class="flip" transform="translate(0 -344.094)"><rect width="177.927" height="46.615" x="201.82" y="664.159" fill="#ffd257" class="nonvalue" rx="4.039" ry="4.039"/><text style="line-height:125%" x="210.634" y="691.887" font-family="Sans" font-size="14.122" font-weight="400" letter-spacing="0" transform="scale(1.00076 .99924)" word-spacing="0"><tspan x="210.634" y="691.887">global environment</tspan></text><rect width="136.614" height="46.615" x="18.811" y="664.159" fill="#83d4ff" rx="11.065" ry="11.065"/><path fill="none" stroke="#000" stroke-width="3" marker-end="url(#b)" marker-start="url(#a)" d="M204.053 687.466h-46.267"/><text style="line-height:125%" x="3.02" y="659.444" font-family="Sans" font-size="14.122" font-weight="400" letter-spacing="0" transform="scale(1.00076 .99924)" word-spacing="0"><tspan x="3.02" y="659.444">global object:</tspan></text><text style="text-align:center;line-height:125%" x="87.051" y="698.414" font-family="Sans" font-size="14.122" font-weight="400" letter-spacing="0" text-anchor="middle" transform="scale(1.00076 .99924)" word-spacing="0"><tspan x="87.051" y="698.414">Date; Math; ...</tspan></text></g><g class="flip"><rect width="243.144" height="75.74" x="176.363" y="683.061" fill="#83ff9a" class="nonvalue" rx="6.125" ry="6.125" transform="translate(0 -652.362)"/><rect width="186.561" height="18.675" x="278.799" y="702.99" fill="#83ff9a" stroke="#e6e4dd" stroke-width="2.929" class="nonvalue" rx="6.125" ry="6.125" transform="translate(0 -652.362)"/></g><text style="line-height:125%" x="183" y="699.527" font-family="Sans" font-size="14.122" font-weight="400" letter-spacing="0" transform="matrix(1.00076 0 0 .99924 0 -652.362)" word-spacing="0"><tspan x="183" y="699.527">function alertLater(msg, delay) {</tspan><tspan x="183" y="717.179"> setTimeout( function () { alert(msg); },</tspan><tspan x="183" y="734.832"> delay);</tspan><tspan x="183" y="752.485">}</tspan></text><g class="flip"><rect width="119.604" height="42.398" x="18.04" y="796.026" fill="#83d4ff" rx="11.065" ry="11.065" transform="translate(0 -652.362)"/><text style="text-align:end;line-height:125%" x="98.428" y="811.158" font-family="Sans" font-size="13.919" font-weight="400" letter-spacing="0" text-anchor="end" transform="matrix(1.00076 0 0 .99924 0 -652.362)" word-spacing="0"><tspan x="98.428" y="811.158">[[Code]]:</tspan></text><text style="text-align:end;line-height:125%" x="98.428" y="831.649" font-family="Sans" font-size="13.919" font-weight="400" letter-spacing="0" text-anchor="end" transform="matrix(1.00076 0 0 .99924 0 -652.362)" word-spacing="0"><tspan x="98.428" y="831.649">[[Scope]]:</tspan></text><path fill="none" stroke="#e6e4dd" stroke-width="2.957" d="M18.04 165.532h119.602"/><text style="line-height:125%" x="2.407" y="791.508" font-family="Sans" font-size="14.122" font-weight="400" letter-spacing="0" transform="matrix(1.00076 0 0 .99924 0 -652.362)" word-spacing="0"><tspan x="2.407" y="791.508">alertLater:</tspan></text><path fill="none" stroke="#000" stroke-width="3" marker-end="url(#d)" marker-start="url(#c)" d="M113.607 806.633c0-45.024 23.466-83.543 59.207-83.543m-59.207 104.131c51.733 0 90.506 99.848 90.506 141.325" transform="translate(0 -652.362)"/><text style="text-align:center;line-height:125%" x="87.051" y="991.618" font-family="Sans" font-size="14.122" font-weight="400" letter-spacing="0" text-anchor="middle" transform="matrix(1.00076 0 0 .99924 0 -652.362)" word-spacing="0"><tspan x="89.299" y="991.618">alertLater;</tspan></text></g><g class="flip"><rect width="149.35" height="46.615" x="229.789" y="270.808" fill="#ffd257" class="nonvalue" rx="4.039" ry="4.039"/><g font-family="Sans" font-size="22" font-weight="400" letter-spacing="0" word-spacing="0"><text x="499.133" y="795.716" text-anchor="end" transform="matrix(.58945 0 0 .58739 4.526 -176.544)" style="text-align:end;line-height:125%"><tspan x="499.133" y="795.716">msg:</tspan><tspan x="499.133" y="823.216">delay:</tspan></text><text x="507" y="794.926" transform="matrix(.58887 0 0 .58797 4.526 -176.544)" style="line-height:125%"><tspan x="507" y="794.926">&apos;xlerb&apos;</tspan><tspan x="507" y="822.426">1000</tspan></text></g></g><g class="flip"><rect width="119.604" height="42.398" x="185.843" y="143.664" fill="#83d4ff" rx="11.065" ry="11.065"/><text style="text-align:end;line-height:125%" x="266.103" y="158.298" font-family="Sans" font-size="13.919" font-weight="400" letter-spacing="0" text-anchor="end" transform="scale(1.00076 .99924)" word-spacing="0"><tspan x="266.103" y="158.298">[[Code]]:</tspan></text><text style="text-align:end;line-height:125%" x="266.103" y="178.789" font-family="Sans" font-size="13.919" font-weight="400" letter-spacing="0" text-anchor="end" transform="scale(1.00076 .99924)" word-spacing="0"><tspan x="266.103" y="178.789">[[Scope]]:</tspan></text><path fill="none" stroke="#e6e4dd" stroke-width="2.957" d="M185.843 165.532h119.602"/><path fill="none" stroke="#000" stroke-width="3" marker-end="url(#d)" marker-start="url(#c)" d="M285.445 176.59c0 31.26-38.089 59.767-38.089 91.053m38.594-113.165c165.685 0 170.772-32.93 158.206-82.184"/></g><g class="flip"><rect width="194.03" height="46.615" x="406.385" y="320.064" fill="#ff9457" class="nonvalue" rx="4.039" ry="4.039"/><text style="line-height:125%" x="434.11" y="346.934" font-family="Sans" font-size="12.935" font-weight="400" letter-spacing="0" word-spacing="0"><tspan x="434.11" y="346.934"><tspan style="-inkscape-font-specification:Sans Italic" font-style="italic">anonymous</tspan>()</tspan></text><rect width="90.035" height="46.615" x="289.103" y="221.555" fill="#ffd257" class="nonvalue" rx="4.039" ry="4.039"/><text style="line-height:125%;-inkscape-font-specification:Sans Italic" x="312.997" y="248.058" font-family="Sans" font-size="12.935" font-style="italic" font-weight="400" letter-spacing="0" word-spacing="0"><tspan x="312.997" y="248.058">empty</tspan></text><path fill="none" stroke="#000" stroke-width="3" marker-end="url(#b)" marker-start="url(#a)" d="M415.86 342.35c-51.097 0 11.106-95.595-39.03-95.595m211.854 96.578c66.197 0 27.6-283.142-117.224-283.142"/></g><g class="flip"><rect width="194.03" height="46.615" x="406.385" y="270.808" fill="#ff9457" class="nonvalue" rx="4.039" ry="4.039"/><text style="line-height:125%" x="433.863" y="298.871" font-family="Sans" font-size="12.935" font-weight="400" letter-spacing="0" word-spacing="0"><tspan x="433.863" y="298.871">alert(&apos;xlerb&apos;)</tspan></text></g></svg>