<svg xmlns="http://www.w3.org/2000/svg" width="2719" height="384"><defs><path d="M-136.321-230.336h2994.365v653.401H-136.321z"/></defs><path d="M1383.326 0h-192c-106 0-192 86-192 192s86 192 192 192h192c106 0 192-86 192-192s-86-192-192-192zm0 320c-70.8 0-128-57.3-128-128 0-70.8 57.3-128 128-128 70.8 0 128 57.3 128 128 0 70.8-57.3 128-128 128z"/><text y="370" stroke-width="42" font-family="sans-serif" font-size="490" font-weight="lighter">CJS</text><text x="1682" y="370" stroke-width="42" font-family="sans-serif" font-size="490" font-weight="lighter">ESM</text></svg>